PERFORMER "Team Gerbera"
TITLE "Gerbera Rocks"
FILE "Side A.wv" WAVE
  TRACK 01 AUDIO
    TITLE "UPnP Media Server"
    INDEX 01 00:00:00
  TRACK 02 AUDIO
    TITLE "Based on Mediatomb"
    PERFORMER "Mediatomb"
    INDEX 01 06:35:00
  TRACK 03 AUDIO
    TITLE "For Lots of Media Types"
    INDEX 01 11:03:00

FILE "Side B.wv" WAVE
  TRACK 05 AUDIO
    TITLE "Flexible Layout"
    PERFORMER "feat. Javascript"
    INDEX 01 00:00:00
  TRACK 06 AUDIO
    TITLE "From Metadata"
    INDEX 01 04:31:01

